<mxfile host="65bd71144e">
    <diagram id="s8VPOtiFLuaC2YJRNJwi" name="Scraping Process">
        <mxGraphModel dx="418" dy="1710" grid="1" gridSize="10" guides="1" tooltips="1" connect="1" arrows="1" fold="1" page="1" pageScale="1" pageWidth="850" pageHeight="1100" math="0" shadow="0">
            <root>
                <mxCell id="0"/>
                <mxCell id="1" parent="0"/>
                <mxCell id="26" value="&amp;nbsp;Kategori = &quot; &quot;" style="shape=parallelogram;perimeter=parallelogramPerimeter;whiteSpace=wrap;html=1;fixedSize=1;" parent="1" vertex="1">
                    <mxGeometry x="1920" y="120" width="130" height="50" as="geometry"/>
                </mxCell>
                <mxCell id="103" style="edgeStyle=none;html=1;fontColor=#FFFFFF;exitX=1;exitY=0.5;exitDx=0;exitDy=0;" parent="1" source="28" edge="1">
                    <mxGeometry relative="1" as="geometry">
                        <mxPoint x="1700" y="236" as="targetPoint"/>
                        <Array as="points">
                            <mxPoint x="1700" y="145"/>
                        </Array>
                    </mxGeometry>
                </mxCell>
                <mxCell id="28" value="Status = Active&lt;br&gt;Diupdate = Date" style="shape=parallelogram;perimeter=parallelogramPerimeter;whiteSpace=wrap;html=1;fixedSize=1;" parent="1" vertex="1">
                    <mxGeometry x="1530" y="120" width="139" height="50" as="geometry"/>
                </mxCell>
                <mxCell id="104" style="edgeStyle=none;html=1;fontColor=#FFFFFF;exitX=1;exitY=0.5;exitDx=0;exitDy=0;" parent="1" source="32" edge="1">
                    <mxGeometry relative="1" as="geometry">
                        <mxPoint x="1700" y="240" as="targetPoint"/>
                        <Array as="points">
                            <mxPoint x="1700" y="330"/>
                        </Array>
                    </mxGeometry>
                </mxCell>
                <mxCell id="32" value="Status = Diarsipkan&lt;br&gt;Diupdate = Date" style="shape=parallelogram;perimeter=parallelogramPerimeter;whiteSpace=wrap;html=1;fixedSize=1;" parent="1" vertex="1">
                    <mxGeometry x="1530" y="305.5" width="139" height="50" as="geometry"/>
                </mxCell>
                <mxCell id="73" value="DB" style="shape=cylinder3;whiteSpace=wrap;html=1;boundedLbl=1;backgroundOutline=1;size=15;" parent="1" vertex="1">
                    <mxGeometry x="56" y="13" width="60" height="80" as="geometry"/>
                </mxCell>
                <mxCell id="74" value="i &lt;br&gt;&amp;lt; &lt;br&gt;Total Product&lt;br&gt;&lt;br&gt;" style="rhombus;whiteSpace=wrap;html=1;" parent="1" vertex="1">
                    <mxGeometry x="193" y="188" width="100" height="100" as="geometry"/>
                </mxCell>
                <mxCell id="77" value="" style="endArrow=classic;html=1;exitX=1;exitY=0.5;exitDx=0;exitDy=0;entryX=0;entryY=0.5;entryDx=0;entryDy=0;" parent="1" source="74" target="216" edge="1">
                    <mxGeometry relative="1" as="geometry">
                        <mxPoint x="483" y="373" as="sourcePoint"/>
                        <mxPoint x="313" y="303" as="targetPoint"/>
                    </mxGeometry>
                </mxCell>
                <mxCell id="78" value="&amp;nbsp;True&amp;nbsp;" style="edgeLabel;resizable=0;html=1;align=center;verticalAlign=middle;" parent="77" connectable="0" vertex="1">
                    <mxGeometry relative="1" as="geometry">
                        <mxPoint x="-5" as="offset"/>
                    </mxGeometry>
                </mxCell>
                <mxCell id="80" value="" style="endArrow=classic;html=1;exitX=0.5;exitY=1;exitDx=0;exitDy=0;exitPerimeter=0;" parent="1" source="73" target="224" edge="1">
                    <mxGeometry relative="1" as="geometry">
                        <mxPoint x="370" y="223" as="sourcePoint"/>
                        <mxPoint x="100" y="233" as="targetPoint"/>
                    </mxGeometry>
                </mxCell>
                <mxCell id="81" value="Find All" style="edgeLabel;resizable=0;html=1;align=center;verticalAlign=middle;" parent="80" connectable="0" vertex="1">
                    <mxGeometry relative="1" as="geometry"/>
                </mxCell>
                <mxCell id="86" value="" style="endArrow=classic;html=1;exitX=0.5;exitY=0;exitDx=0;exitDy=0;entryX=0;entryY=0.5;entryDx=0;entryDy=0;" parent="1" source="91" target="28" edge="1">
                    <mxGeometry relative="1" as="geometry">
                        <mxPoint x="1631" y="441" as="sourcePoint"/>
                        <mxPoint x="1751" y="376" as="targetPoint"/>
                        <Array as="points">
                            <mxPoint x="1415" y="145"/>
                        </Array>
                    </mxGeometry>
                </mxCell>
                <mxCell id="87" value="Null" style="edgeLabel;resizable=0;html=1;align=center;verticalAlign=middle;" parent="86" connectable="0" vertex="1">
                    <mxGeometry relative="1" as="geometry">
                        <mxPoint x="-41" y="24" as="offset"/>
                    </mxGeometry>
                </mxCell>
                <mxCell id="121" style="edgeStyle=none;html=1;entryX=0;entryY=0.5;entryDx=0;entryDy=0;fontColor=#FFFFFF;" parent="1" source="90" target="91" edge="1">
                    <mxGeometry relative="1" as="geometry"/>
                </mxCell>
                <mxCell id="90" value="&lt;font color=&quot;#ffffff&quot; face=&quot;fira code, consolas, courier new, monospace&quot;&gt;Scraping&lt;/font&gt;" style="shape=parallelogram;perimeter=parallelogramPerimeter;whiteSpace=wrap;html=1;fixedSize=1;" parent="1" vertex="1">
                    <mxGeometry x="1220" y="213" width="100" height="50" as="geometry"/>
                </mxCell>
                <mxCell id="91" value="&lt;span style=&quot;font-family: &amp;#34;fira code&amp;#34; , &amp;#34;consolas&amp;#34; , &amp;#34;courier new&amp;#34; , monospace&quot;&gt;class&lt;br&gt;&lt;/span&gt;&lt;span style=&quot;font-family: &amp;#34;fira code&amp;#34; , &amp;#34;consolas&amp;#34; , &amp;#34;courier new&amp;#34; , monospace&quot;&gt;'_1WIqzi'&lt;br&gt;Text&lt;br&gt;&lt;/span&gt;" style="rhombus;whiteSpace=wrap;html=1;labelBackgroundColor=none;fontColor=#FFFFFF;" parent="1" vertex="1">
                    <mxGeometry x="1365" y="188" width="100" height="100" as="geometry"/>
                </mxCell>
                <mxCell id="92" value="" style="endArrow=classic;html=1;exitX=1;exitY=0.5;exitDx=0;exitDy=0;entryX=0;entryY=0.5;entryDx=0;entryDy=0;" parent="1" source="91" target="95" edge="1">
                    <mxGeometry relative="1" as="geometry">
                        <mxPoint x="1581" y="276" as="sourcePoint"/>
                        <mxPoint x="1651" y="236" as="targetPoint"/>
                    </mxGeometry>
                </mxCell>
                <mxCell id="93" value="&amp;nbsp;habis&amp;nbsp;" style="edgeLabel;resizable=0;html=1;align=center;verticalAlign=middle;" parent="92" connectable="0" vertex="1">
                    <mxGeometry relative="1" as="geometry">
                        <mxPoint x="-13" as="offset"/>
                    </mxGeometry>
                </mxCell>
                <mxCell id="98" style="edgeStyle=none;html=1;exitX=1;exitY=0.5;exitDx=0;exitDy=0;fontColor=#FFFFFF;" parent="1" source="95" target="97" edge="1">
                    <mxGeometry relative="1" as="geometry">
                        <mxPoint x="1831" y="286" as="targetPoint"/>
                    </mxGeometry>
                </mxCell>
                <mxCell id="95" value="Status = Habis&lt;br&gt;Diupdate = Date" style="shape=parallelogram;perimeter=parallelogramPerimeter;whiteSpace=wrap;html=1;fixedSize=1;" parent="1" vertex="1">
                    <mxGeometry x="1530" y="212.5" width="139" height="50" as="geometry"/>
                </mxCell>
                <mxCell id="97" value="&lt;span style=&quot;font-family: &amp;#34;fira code&amp;#34; , &amp;#34;consolas&amp;#34; , &amp;#34;courier new&amp;#34; , monospace&quot;&gt;class&lt;br&gt;&lt;/span&gt;&lt;span style=&quot;font-family: &amp;#34;fira code&amp;#34; , &amp;#34;consolas&amp;#34; , &amp;#34;courier new&amp;#34; , monospace&quot;&gt;'&lt;/span&gt;&lt;span style=&quot;font-family: &amp;#34;fira code&amp;#34; , &amp;#34;consolas&amp;#34; , &amp;#34;courier new&amp;#34; , monospace&quot;&gt;_2Shl1j&lt;/span&gt;&lt;span style=&quot;font-family: &amp;#34;fira code&amp;#34; , &amp;#34;consolas&amp;#34; , &amp;#34;courier new&amp;#34; , monospace&quot;&gt;'&lt;br&gt;&lt;/span&gt;&lt;span style=&quot;font-family: &amp;#34;fira code&amp;#34; , &amp;#34;consolas&amp;#34; , &amp;#34;courier new&amp;#34; , monospace&quot;&gt;Text&lt;br&gt;Include&lt;br&gt;-&lt;br&gt;&lt;/span&gt;" style="rhombus;whiteSpace=wrap;html=1;labelBackgroundColor=none;fontColor=#FFFFFF;" parent="1" vertex="1">
                    <mxGeometry x="1740" y="178" width="120" height="120" as="geometry"/>
                </mxCell>
                <mxCell id="101" value="" style="endArrow=classic;html=1;exitX=0.5;exitY=1;exitDx=0;exitDy=0;entryX=0;entryY=0.5;entryDx=0;entryDy=0;" parent="1" source="91" target="32" edge="1">
                    <mxGeometry relative="1" as="geometry">
                        <mxPoint x="1581" y="246" as="sourcePoint"/>
                        <mxPoint x="1651" y="246" as="targetPoint"/>
                        <Array as="points">
                            <mxPoint x="1415" y="330"/>
                        </Array>
                    </mxGeometry>
                </mxCell>
                <mxCell id="102" value="Diarsipkan" style="edgeLabel;resizable=0;html=1;align=center;verticalAlign=middle;" parent="101" connectable="0" vertex="1">
                    <mxGeometry relative="1" as="geometry">
                        <mxPoint x="-42" y="-25" as="offset"/>
                    </mxGeometry>
                </mxCell>
                <mxCell id="106" value="" style="endArrow=classic;html=1;exitX=0.5;exitY=0;exitDx=0;exitDy=0;entryX=0;entryY=0.5;entryDx=0;entryDy=0;" parent="1" source="97" target="26" edge="1">
                    <mxGeometry relative="1" as="geometry">
                        <mxPoint x="1996" y="261" as="sourcePoint"/>
                        <mxPoint x="2071" y="176" as="targetPoint"/>
                        <Array as="points">
                            <mxPoint x="1800" y="145"/>
                        </Array>
                    </mxGeometry>
                </mxCell>
                <mxCell id="107" value="True" style="edgeLabel;resizable=0;html=1;align=center;verticalAlign=middle;" parent="106" connectable="0" vertex="1">
                    <mxGeometry relative="1" as="geometry">
                        <mxPoint x="-49" y="20" as="offset"/>
                    </mxGeometry>
                </mxCell>
                <mxCell id="205" style="edgeStyle=none;html=1;fontColor=#FFFFFF;entryX=0;entryY=0.5;entryDx=0;entryDy=0;" parent="1" source="108" target="269" edge="1">
                    <mxGeometry relative="1" as="geometry">
                        <mxPoint x="2100" y="238" as="targetPoint"/>
                    </mxGeometry>
                </mxCell>
                <mxCell id="108" value="Harga = Text" style="shape=parallelogram;perimeter=parallelogramPerimeter;whiteSpace=wrap;html=1;fixedSize=1;" parent="1" vertex="1">
                    <mxGeometry x="1920" y="212.5" width="130" height="50" as="geometry"/>
                </mxCell>
                <mxCell id="110" value="" style="endArrow=classic;html=1;exitX=1;exitY=0.5;exitDx=0;exitDy=0;entryX=0;entryY=0.5;entryDx=0;entryDy=0;" parent="1" source="97" target="108" edge="1">
                    <mxGeometry relative="1" as="geometry">
                        <mxPoint x="1921" y="186" as="sourcePoint"/>
                        <mxPoint x="2051" y="181" as="targetPoint"/>
                    </mxGeometry>
                </mxCell>
                <mxCell id="111" value="&amp;nbsp;False&amp;nbsp;" style="edgeLabel;resizable=0;html=1;align=center;verticalAlign=middle;" parent="110" connectable="0" vertex="1">
                    <mxGeometry relative="1" as="geometry">
                        <mxPoint x="-13" as="offset"/>
                    </mxGeometry>
                </mxCell>
                <mxCell id="270" style="edgeStyle=none;html=1;fontColor=#FFFFFF;exitX=1;exitY=0.5;exitDx=0;exitDy=0;" parent="1" source="190" edge="1">
                    <mxGeometry relative="1" as="geometry">
                        <mxPoint x="2100" y="240" as="targetPoint"/>
                        <Array as="points">
                            <mxPoint x="2100" y="330"/>
                        </Array>
                    </mxGeometry>
                </mxCell>
                <mxCell id="190" value="Status = Error&lt;br&gt;State = Skip&lt;br&gt;thereSkip = True" style="shape=parallelogram;perimeter=parallelogramPerimeter;whiteSpace=wrap;html=1;fixedSize=1;" parent="1" vertex="1">
                    <mxGeometry x="1920" y="305.5" width="130" height="50" as="geometry"/>
                </mxCell>
                <mxCell id="191" value="" style="endArrow=classic;html=1;exitX=0.5;exitY=1;exitDx=0;exitDy=0;entryX=0;entryY=0.5;entryDx=0;entryDy=0;" parent="1" source="97" target="190" edge="1">
                    <mxGeometry relative="1" as="geometry">
                        <mxPoint x="1882" y="116" as="sourcePoint"/>
                        <mxPoint x="2051" y="310" as="targetPoint"/>
                        <Array as="points">
                            <mxPoint x="1800" y="330"/>
                        </Array>
                    </mxGeometry>
                </mxCell>
                <mxCell id="192" value="Null" style="edgeLabel;resizable=0;html=1;align=center;verticalAlign=middle;" parent="191" connectable="0" vertex="1">
                    <mxGeometry relative="1" as="geometry">
                        <mxPoint x="-49" y="-18" as="offset"/>
                    </mxGeometry>
                </mxCell>
                <mxCell id="193" value="&lt;span style=&quot;font-family: &amp;#34;fira code&amp;#34; , &amp;#34;consolas&amp;#34; , &amp;#34;courier new&amp;#34; , monospace&quot;&gt;Status =&lt;br&gt;Habis /&amp;nbsp;&lt;br&gt;Diarsipkan&lt;br&gt;&lt;/span&gt;" style="rhombus;whiteSpace=wrap;html=1;labelBackgroundColor=none;fontColor=#FFFFFF;" parent="1" vertex="1">
                    <mxGeometry x="1925" y="-27" width="120" height="120" as="geometry"/>
                </mxCell>
                <mxCell id="194" style="html=1;exitX=0.5;exitY=0;exitDx=0;exitDy=0;fontColor=#FFFFFF;entryX=0.5;entryY=1;entryDx=0;entryDy=0;" parent="1" source="26" target="193" edge="1">
                    <mxGeometry relative="1" as="geometry">
                        <mxPoint x="1800" y="-189.5" as="sourcePoint"/>
                        <mxPoint x="1891" y="-70.50000000000023" as="targetPoint"/>
                    </mxGeometry>
                </mxCell>
                <mxCell id="298" style="edgeStyle=none;html=1;fontColor=#FFFFFF;" parent="1" source="195" edge="1">
                    <mxGeometry relative="1" as="geometry">
                        <mxPoint x="160" y="140" as="targetPoint"/>
                        <Array as="points">
                            <mxPoint x="160" y="100"/>
                        </Array>
                    </mxGeometry>
                </mxCell>
                <mxCell id="195" value="Update Product" style="shape=cylinder3;whiteSpace=wrap;html=1;boundedLbl=1;backgroundOutline=1;size=15;" parent="1" vertex="1">
                    <mxGeometry x="599" y="56" width="60" height="84" as="geometry"/>
                </mxCell>
                <mxCell id="197" value="" style="endArrow=classic;html=1;exitX=0.5;exitY=0;exitDx=0;exitDy=0;entryX=0;entryY=0.5;entryDx=0;entryDy=0;" parent="1" source="193" target="203" edge="1">
                    <mxGeometry relative="1" as="geometry">
                        <mxPoint x="1981" y="-274.5" as="sourcePoint"/>
                        <mxPoint x="2270" y="-216.5" as="targetPoint"/>
                        <Array as="points">
                            <mxPoint x="1985" y="-55"/>
                        </Array>
                    </mxGeometry>
                </mxCell>
                <mxCell id="198" value="False" style="edgeLabel;resizable=0;html=1;align=center;verticalAlign=middle;" parent="197" connectable="0" vertex="1">
                    <mxGeometry relative="1" as="geometry">
                        <mxPoint x="-24" y="15" as="offset"/>
                    </mxGeometry>
                </mxCell>
                <mxCell id="276" style="edgeStyle=none;html=1;exitX=0.5;exitY=1;exitDx=0;exitDy=0;fontColor=#FFFFFF;" parent="1" source="203" edge="1">
                    <mxGeometry relative="1" as="geometry">
                        <mxPoint x="2097.551724137931" y="30" as="targetPoint"/>
                    </mxGeometry>
                </mxCell>
                <mxCell id="203" value="Status = Option" style="shape=parallelogram;perimeter=parallelogramPerimeter;whiteSpace=wrap;html=1;fixedSize=1;" parent="1" vertex="1">
                    <mxGeometry x="2039" y="-80" width="116.67" height="50" as="geometry"/>
                </mxCell>
                <mxCell id="208" value="Shopee&lt;br&gt;!=&amp;nbsp;&lt;br&gt;Undefined" style="rhombus;whiteSpace=wrap;html=1;labelBackgroundColor=none;fontColor=#FFFFFF;" parent="1" vertex="1">
                    <mxGeometry x="441" y="186.5" width="103" height="103" as="geometry"/>
                </mxCell>
                <mxCell id="214" value="" style="endArrow=classic;html=1;exitX=0.5;exitY=1;exitDx=0;exitDy=0;" parent="1" source="74" target="221" edge="1">
                    <mxGeometry relative="1" as="geometry">
                        <mxPoint x="303" y="248" as="sourcePoint"/>
                        <mxPoint x="233" y="353" as="targetPoint"/>
                    </mxGeometry>
                </mxCell>
                <mxCell id="215" value="False" style="edgeLabel;resizable=0;html=1;align=center;verticalAlign=middle;" parent="214" connectable="0" vertex="1">
                    <mxGeometry relative="1" as="geometry">
                        <mxPoint y="-4" as="offset"/>
                    </mxGeometry>
                </mxCell>
                <mxCell id="218" style="edgeStyle=none;html=1;entryX=0;entryY=0.5;entryDx=0;entryDy=0;fontColor=#FFFFFF;" parent="1" source="216" target="208" edge="1">
                    <mxGeometry relative="1" as="geometry"/>
                </mxCell>
                <mxCell id="216" value="i ++" style="shape=parallelogram;perimeter=parallelogramPerimeter;whiteSpace=wrap;html=1;fixedSize=1;labelBackgroundColor=none;fontColor=#FFFFFF;" parent="1" vertex="1">
                    <mxGeometry x="343" y="222" width="64" height="32" as="geometry"/>
                </mxCell>
                <mxCell id="219" value="" style="endArrow=classic;html=1;exitX=0.5;exitY=0;exitDx=0;exitDy=0;" parent="1" source="208" edge="1">
                    <mxGeometry relative="1" as="geometry">
                        <mxPoint x="515" y="123" as="sourcePoint"/>
                        <mxPoint x="160" y="238" as="targetPoint"/>
                        <Array as="points">
                            <mxPoint x="492" y="143"/>
                            <mxPoint x="160" y="143"/>
                        </Array>
                    </mxGeometry>
                </mxCell>
                <mxCell id="220" value="False" style="edgeLabel;resizable=0;html=1;align=center;verticalAlign=middle;" parent="219" connectable="0" vertex="1">
                    <mxGeometry relative="1" as="geometry">
                        <mxPoint x="193" y="30" as="offset"/>
                    </mxGeometry>
                </mxCell>
                <mxCell id="227" style="edgeStyle=none;html=1;entryX=0;entryY=0.5;entryDx=0;entryDy=0;fontColor=#FFFFFF;" parent="1" source="221" target="226" edge="1">
                    <mxGeometry relative="1" as="geometry"/>
                </mxCell>
                <mxCell id="221" value="fixSkip = true" style="shape=parallelogram;perimeter=parallelogramPerimeter;whiteSpace=wrap;html=1;fixedSize=1;labelBackgroundColor=none;fontColor=#FFFFFF;" parent="1" vertex="1">
                    <mxGeometry x="163" y="333" width="160" height="45" as="geometry"/>
                </mxCell>
                <mxCell id="225" style="edgeStyle=none;html=1;entryX=0;entryY=0.5;entryDx=0;entryDy=0;fontColor=#FFFFFF;" parent="1" source="224" target="74" edge="1">
                    <mxGeometry relative="1" as="geometry"/>
                </mxCell>
                <mxCell id="224" value="Product = DB&lt;br&gt;Skiped = [ ]&lt;br&gt;Fix Skip = false" style="shape=parallelogram;perimeter=parallelogramPerimeter;whiteSpace=wrap;html=1;fixedSize=1;labelBackgroundColor=none;fontColor=#FFFFFF;" parent="1" vertex="1">
                    <mxGeometry x="20" y="208" width="130" height="60" as="geometry"/>
                </mxCell>
                <mxCell id="226" value="e &lt;br&gt;&amp;lt; &lt;br&gt;Total Skiped&lt;br&gt;&lt;br&gt;" style="rhombus;whiteSpace=wrap;html=1;" parent="1" vertex="1">
                    <mxGeometry x="360" y="305.5" width="100" height="100" as="geometry"/>
                </mxCell>
                <mxCell id="228" value="" style="endArrow=classic;html=1;exitX=1;exitY=0.5;exitDx=0;exitDy=0;entryX=0;entryY=0.5;entryDx=0;entryDy=0;" parent="1" source="226" target="230" edge="1">
                    <mxGeometry relative="1" as="geometry">
                        <mxPoint x="480" y="361" as="sourcePoint"/>
                        <mxPoint x="500" y="426" as="targetPoint"/>
                    </mxGeometry>
                </mxCell>
                <mxCell id="229" value="&amp;nbsp;True&amp;nbsp;" style="edgeLabel;resizable=0;html=1;align=center;verticalAlign=middle;" parent="228" connectable="0" vertex="1">
                    <mxGeometry relative="1" as="geometry">
                        <mxPoint x="-5" as="offset"/>
                    </mxGeometry>
                </mxCell>
                <mxCell id="236" style="edgeStyle=none;html=1;fontColor=#FFFFFF;exitX=1;exitY=0.5;exitDx=0;exitDy=0;" parent="1" source="230" edge="1">
                    <mxGeometry relative="1" as="geometry">
                        <mxPoint x="580" y="363" as="sourcePoint"/>
                        <mxPoint x="610" y="240" as="targetPoint"/>
                        <Array as="points">
                            <mxPoint x="610" y="355"/>
                        </Array>
                    </mxGeometry>
                </mxCell>
                <mxCell id="230" value="e ++" style="shape=parallelogram;perimeter=parallelogramPerimeter;whiteSpace=wrap;html=1;fixedSize=1;labelBackgroundColor=none;fontColor=#FFFFFF;" parent="1" vertex="1">
                    <mxGeometry x="508" y="337" width="70" height="35" as="geometry"/>
                </mxCell>
                <mxCell id="233" value="s &amp;lt; &lt;br&gt;Total Shopee" style="rhombus;whiteSpace=wrap;html=1;" parent="1" vertex="1">
                    <mxGeometry x="790" y="188" width="100" height="100" as="geometry"/>
                </mxCell>
                <mxCell id="234" value="" style="endArrow=classic;html=1;exitX=1;exitY=0.5;exitDx=0;exitDy=0;entryX=0;entryY=0.5;entryDx=0;entryDy=0;" parent="1" source="208" target="267" edge="1">
                    <mxGeometry relative="1" as="geometry">
                        <mxPoint x="570" y="243.5" as="sourcePoint"/>
                        <mxPoint x="630" y="238" as="targetPoint"/>
                    </mxGeometry>
                </mxCell>
                <mxCell id="235" value="&amp;nbsp;True&amp;nbsp;" style="edgeLabel;resizable=0;html=1;align=center;verticalAlign=middle;" parent="234" connectable="0" vertex="1">
                    <mxGeometry relative="1" as="geometry">
                        <mxPoint x="-17" as="offset"/>
                    </mxGeometry>
                </mxCell>
                <mxCell id="237" value="" style="endArrow=classic;html=1;exitX=1;exitY=0.5;exitDx=0;exitDy=0;entryX=0;entryY=0.5;entryDx=0;entryDy=0;" parent="1" source="233" target="239" edge="1">
                    <mxGeometry relative="1" as="geometry">
                        <mxPoint x="920" y="264" as="sourcePoint"/>
                        <mxPoint x="960" y="334.5" as="targetPoint"/>
                    </mxGeometry>
                </mxCell>
                <mxCell id="238" value="&amp;nbsp;True&amp;nbsp;" style="edgeLabel;resizable=0;html=1;align=center;verticalAlign=middle;" parent="237" connectable="0" vertex="1">
                    <mxGeometry relative="1" as="geometry">
                        <mxPoint x="-5" as="offset"/>
                    </mxGeometry>
                </mxCell>
                <mxCell id="249" style="edgeStyle=none;html=1;fontColor=#FFFFFF;" parent="1" source="239" target="248" edge="1">
                    <mxGeometry relative="1" as="geometry"/>
                </mxCell>
                <mxCell id="239" value="s ++" style="shape=parallelogram;perimeter=parallelogramPerimeter;whiteSpace=wrap;html=1;fixedSize=1;labelBackgroundColor=none;fontColor=#FFFFFF;" parent="1" vertex="1">
                    <mxGeometry x="950" y="220" width="70" height="35" as="geometry"/>
                </mxCell>
                <mxCell id="243" value="" style="endArrow=classic;html=1;exitX=0.5;exitY=1;exitDx=0;exitDy=0;entryX=1;entryY=0.5;entryDx=0;entryDy=0;" parent="1" source="226" target="245" edge="1">
                    <mxGeometry relative="1" as="geometry">
                        <mxPoint x="253.0000000000001" y="298" as="sourcePoint"/>
                        <mxPoint x="410" y="473" as="targetPoint"/>
                        <Array as="points">
                            <mxPoint x="410" y="461"/>
                        </Array>
                    </mxGeometry>
                </mxCell>
                <mxCell id="244" value="False" style="edgeLabel;resizable=0;html=1;align=center;verticalAlign=middle;" parent="243" connectable="0" vertex="1">
                    <mxGeometry relative="1" as="geometry">
                        <mxPoint x="45" y="-35" as="offset"/>
                    </mxGeometry>
                </mxCell>
                <mxCell id="246" style="edgeStyle=none;html=1;fontColor=#FFFFFF;" parent="1" source="245" edge="1">
                    <mxGeometry relative="1" as="geometry">
                        <mxPoint x="80" y="123" as="targetPoint"/>
                        <Array as="points">
                            <mxPoint x="10" y="461"/>
                            <mxPoint x="10" y="123"/>
                        </Array>
                    </mxGeometry>
                </mxCell>
                <mxCell id="245" value="i = 0" style="shape=parallelogram;perimeter=parallelogramPerimeter;whiteSpace=wrap;html=1;fixedSize=1;labelBackgroundColor=none;fontColor=#FFFFFF;" parent="1" vertex="1">
                    <mxGeometry x="211.5" y="447" width="63" height="29.53" as="geometry"/>
                </mxCell>
                <mxCell id="248" value="fixSkip =&lt;br&gt;True" style="rhombus;whiteSpace=wrap;html=1;" parent="1" vertex="1">
                    <mxGeometry x="1050" y="199" width="78" height="78" as="geometry"/>
                </mxCell>
                <mxCell id="250" value="Shopee&lt;br&gt;.State = &lt;br&gt;Skip" style="rhombus;whiteSpace=wrap;html=1;" parent="1" vertex="1">
                    <mxGeometry x="1045" y="333" width="88" height="88" as="geometry"/>
                </mxCell>
                <mxCell id="251" value="" style="endArrow=classic;html=1;exitX=0.5;exitY=1;exitDx=0;exitDy=0;entryX=0.5;entryY=0;entryDx=0;entryDy=0;" parent="1" source="248" target="250" edge="1">
                    <mxGeometry relative="1" as="geometry">
                        <mxPoint x="1100" y="325" as="sourcePoint"/>
                        <mxPoint x="1170" y="324.5" as="targetPoint"/>
                    </mxGeometry>
                </mxCell>
                <mxCell id="252" value="&amp;nbsp;True&amp;nbsp;" style="edgeLabel;resizable=0;html=1;align=center;verticalAlign=middle;" parent="251" connectable="0" vertex="1">
                    <mxGeometry relative="1" as="geometry">
                        <mxPoint y="-15" as="offset"/>
                    </mxGeometry>
                </mxCell>
                <mxCell id="257" value="" style="endArrow=classic;html=1;exitX=0;exitY=0.5;exitDx=0;exitDy=0;" parent="1" source="250" edge="1">
                    <mxGeometry relative="1" as="geometry">
                        <mxPoint x="1099" y="287" as="sourcePoint"/>
                        <mxPoint x="760" y="240" as="targetPoint"/>
                        <Array as="points">
                            <mxPoint x="760" y="377"/>
                        </Array>
                    </mxGeometry>
                </mxCell>
                <mxCell id="258" value="&amp;nbsp;False&amp;nbsp;" style="edgeLabel;resizable=0;html=1;align=center;verticalAlign=middle;" parent="257" connectable="0" vertex="1">
                    <mxGeometry relative="1" as="geometry">
                        <mxPoint x="186" as="offset"/>
                    </mxGeometry>
                </mxCell>
                <mxCell id="259" value="" style="endArrow=classic;html=1;exitX=1;exitY=0.5;exitDx=0;exitDy=0;entryX=0;entryY=0.5;entryDx=0;entryDy=0;" parent="1" source="248" target="90" edge="1">
                    <mxGeometry relative="1" as="geometry">
                        <mxPoint x="1099" y="287" as="sourcePoint"/>
                        <mxPoint x="1220" y="238" as="targetPoint"/>
                    </mxGeometry>
                </mxCell>
                <mxCell id="260" value="&amp;nbsp;False&amp;nbsp;" style="edgeLabel;resizable=0;html=1;align=center;verticalAlign=middle;" parent="259" connectable="0" vertex="1">
                    <mxGeometry relative="1" as="geometry">
                        <mxPoint x="-29" as="offset"/>
                    </mxGeometry>
                </mxCell>
                <mxCell id="261" value="" style="endArrow=classic;html=1;exitX=1;exitY=0.5;exitDx=0;exitDy=0;" parent="1" source="250" edge="1">
                    <mxGeometry relative="1" as="geometry">
                        <mxPoint x="1210" y="305.5" as="sourcePoint"/>
                        <mxPoint x="1200" y="240" as="targetPoint"/>
                        <Array as="points">
                            <mxPoint x="1200" y="377"/>
                        </Array>
                    </mxGeometry>
                </mxCell>
                <mxCell id="262" value="&amp;nbsp;True&amp;nbsp;" style="edgeLabel;resizable=0;html=1;align=center;verticalAlign=middle;" parent="261" connectable="0" vertex="1">
                    <mxGeometry relative="1" as="geometry">
                        <mxPoint x="-40" y="35" as="offset"/>
                    </mxGeometry>
                </mxCell>
                <mxCell id="268" style="edgeStyle=none;html=1;entryX=0;entryY=0.5;entryDx=0;entryDy=0;fontColor=#FFFFFF;" parent="1" source="267" target="233" edge="1">
                    <mxGeometry relative="1" as="geometry"/>
                </mxCell>
                <mxCell id="267" value="thereSkip = &lt;br&gt;False" style="shape=parallelogram;perimeter=parallelogramPerimeter;whiteSpace=wrap;html=1;fixedSize=1;labelBackgroundColor=none;fontColor=#FFFFFF;" parent="1" vertex="1">
                    <mxGeometry x="640" y="211.5" width="104" height="52" as="geometry"/>
                </mxCell>
                <mxCell id="277" style="edgeStyle=none;html=1;fontColor=#FFFFFF;" parent="1" source="269" edge="1">
                    <mxGeometry relative="1" as="geometry">
                        <mxPoint x="760" y="380" as="targetPoint"/>
                        <Array as="points">
                            <mxPoint x="2200" y="440"/>
                            <mxPoint x="760" y="440"/>
                        </Array>
                    </mxGeometry>
                </mxCell>
                <mxCell id="269" value="Finish Scraping" style="shape=parallelogram;perimeter=parallelogramPerimeter;whiteSpace=wrap;html=1;fixedSize=1;labelBackgroundColor=none;fontColor=#FFFFFF;" parent="1" vertex="1">
                    <mxGeometry x="2140" y="207.5" width="120" height="60" as="geometry"/>
                </mxCell>
                <mxCell id="273" value="" style="endArrow=classic;html=1;exitX=1;exitY=0.5;exitDx=0;exitDy=0;" parent="1" source="193" edge="1">
                    <mxGeometry relative="1" as="geometry">
                        <mxPoint x="2120" y="107.99999999999977" as="sourcePoint"/>
                        <mxPoint x="2100" y="230" as="targetPoint"/>
                        <Array as="points">
                            <mxPoint x="2100" y="33"/>
                        </Array>
                    </mxGeometry>
                </mxCell>
                <mxCell id="274" value="&amp;nbsp;True&amp;nbsp;" style="edgeLabel;resizable=0;html=1;align=center;verticalAlign=middle;" parent="273" connectable="0" vertex="1">
                    <mxGeometry relative="1" as="geometry">
                        <mxPoint x="-33" y="-71" as="offset"/>
                    </mxGeometry>
                </mxCell>
                <mxCell id="278" value="&lt;br&gt;thereSkip =&lt;br&gt;True" style="rhombus;whiteSpace=wrap;html=1;" parent="1" vertex="1">
                    <mxGeometry x="801" y="58" width="78" height="78" as="geometry"/>
                </mxCell>
                <mxCell id="279" value="" style="endArrow=classic;html=1;exitX=0.5;exitY=0;exitDx=0;exitDy=0;entryX=0.5;entryY=1;entryDx=0;entryDy=0;" parent="1" source="233" target="278" edge="1">
                    <mxGeometry relative="1" as="geometry">
                        <mxPoint x="860" y="145.07" as="sourcePoint"/>
                        <mxPoint x="870" y="140" as="targetPoint"/>
                    </mxGeometry>
                </mxCell>
                <mxCell id="280" value="False" style="edgeLabel;resizable=0;html=1;align=center;verticalAlign=middle;" parent="279" connectable="0" vertex="1">
                    <mxGeometry relative="1" as="geometry">
                        <mxPoint y="8" as="offset"/>
                    </mxGeometry>
                </mxCell>
                <mxCell id="297" style="edgeStyle=none;html=1;fontColor=#FFFFFF;exitX=0;exitY=0.5;exitDx=0;exitDy=0;" parent="1" source="281" edge="1">
                    <mxGeometry relative="1" as="geometry">
                        <mxPoint x="740" y="-20" as="targetPoint"/>
                        <Array as="points">
                            <mxPoint x="740" y="-125"/>
                        </Array>
                    </mxGeometry>
                </mxCell>
                <mxCell id="281" value="Skiped.push(&lt;br&gt;Product)" style="shape=parallelogram;perimeter=parallelogramPerimeter;whiteSpace=wrap;html=1;fixedSize=1;labelBackgroundColor=none;fontColor=#FFFFFF;" parent="1" vertex="1">
                    <mxGeometry x="788" y="-151" width="104" height="52" as="geometry"/>
                </mxCell>
                <mxCell id="285" value="" style="endArrow=classic;html=1;exitX=0;exitY=0.5;exitDx=0;exitDy=0;entryX=1;entryY=0.5;entryDx=0;entryDy=0;entryPerimeter=0;" parent="1" source="278" target="195" edge="1">
                    <mxGeometry relative="1" as="geometry">
                        <mxPoint x="850" y="198" as="sourcePoint"/>
                        <mxPoint x="849.9999999999998" y="146" as="targetPoint"/>
                    </mxGeometry>
                </mxCell>
                <mxCell id="286" value="&amp;nbsp;False&amp;nbsp;" style="edgeLabel;resizable=0;html=1;align=center;verticalAlign=middle;" parent="285" connectable="0" vertex="1">
                    <mxGeometry relative="1" as="geometry">
                        <mxPoint x="40" y="1" as="offset"/>
                    </mxGeometry>
                </mxCell>
                <mxCell id="287" value="fixSkip =&lt;br&gt;True" style="rhombus;whiteSpace=wrap;html=1;" parent="1" vertex="1">
                    <mxGeometry x="801" y="-60" width="78" height="78" as="geometry"/>
                </mxCell>
                <mxCell id="290" value="" style="endArrow=classic;html=1;exitX=0.5;exitY=0;exitDx=0;exitDy=0;entryX=0.5;entryY=1;entryDx=0;entryDy=0;" parent="1" source="278" target="287" edge="1">
                    <mxGeometry relative="1" as="geometry">
                        <mxPoint x="920" y="65" as="sourcePoint"/>
                        <mxPoint x="919.9999999999998" y="13" as="targetPoint"/>
                    </mxGeometry>
                </mxCell>
                <mxCell id="291" value="True" style="edgeLabel;resizable=0;html=1;align=center;verticalAlign=middle;" parent="290" connectable="0" vertex="1">
                    <mxGeometry relative="1" as="geometry">
                        <mxPoint y="3" as="offset"/>
                    </mxGeometry>
                </mxCell>
                <mxCell id="292" value="" style="endArrow=classic;html=1;exitX=0;exitY=0.5;exitDx=0;exitDy=0;" parent="1" source="287" edge="1">
                    <mxGeometry relative="1" as="geometry">
                        <mxPoint x="749.9999999999998" y="18" as="sourcePoint"/>
                        <mxPoint x="740" y="90" as="targetPoint"/>
                        <Array as="points">
                            <mxPoint x="740" y="-21"/>
                        </Array>
                    </mxGeometry>
                </mxCell>
                <mxCell id="293" value="&amp;nbsp;True&amp;nbsp;" style="edgeLabel;resizable=0;html=1;align=center;verticalAlign=middle;" parent="292" connectable="0" vertex="1">
                    <mxGeometry relative="1" as="geometry">
                        <mxPoint x="43" y="-26" as="offset"/>
                    </mxGeometry>
                </mxCell>
                <mxCell id="295" value="" style="endArrow=classic;html=1;exitX=0.5;exitY=0;exitDx=0;exitDy=0;entryX=0.5;entryY=1;entryDx=0;entryDy=0;" parent="1" source="287" target="281" edge="1">
                    <mxGeometry relative="1" as="geometry">
                        <mxPoint x="940" y="-68" as="sourcePoint"/>
                        <mxPoint x="939.9999999999998" y="-120" as="targetPoint"/>
                    </mxGeometry>
                </mxCell>
                <mxCell id="296" value="False" style="edgeLabel;resizable=0;html=1;align=center;verticalAlign=middle;" parent="295" connectable="0" vertex="1">
                    <mxGeometry relative="1" as="geometry">
                        <mxPoint y="4" as="offset"/>
                    </mxGeometry>
                </mxCell>
            </root>
        </mxGraphModel>
    </diagram>
</mxfile>